<svg width="2147" height="491" viewBox="0 0 2147 491" fill="none" xmlns="http://www.w3.org/2000/svg">
<path d="M167 16L80 149L69.5 145L25 218.5L258 449.5L403 425.5L520 491L657.5 434.5L1838 412.5L2059.5 206.5L1971 63.5L1988.5 35L1057 16.5L1014.5 77L942.5 16.5L167 16Z" fill="#F44407"/>
<path d="M0 243.5L47.5 136L80 130.5L147 0H120.5L69.5 126L8 136L0 243.5Z" fill="#F44407"/>
<path d="M2059.5 304L1938 427L2093 401.5L2059.5 304Z" fill="#F44407"/>
<path d="M1938 427L2146.5 434.5L2072 282L2112.5 412.5L1938 427Z" fill="#F44407"/>
</svg>
