<svg width="2204" height="554" viewBox="0 0 2204 554" fill="none" xmlns="http://www.w3.org/2000/svg">
<path d="M2147.5 441.5L1947.5 483L2107.5 311L2147.5 441.5Z" fill="#7DFFFF"/>
<path d="M0 273.5L160.5 0L1026.5 17.5L1046.5 42.5L1066 23.5L2184 29L2042.5 85.5H2075.5L2140 235L1908.5 497L496 480L465.5 463L272 509.5L0 273.5Z" fill="#7DFFFF"/>
<path d="M320 449.5L62 243.5L108 135.5L138 129.5L202.5 0L1032.5 9L1076.5 37.5L1090 16H2130.5L2041 64H2063L2121.5 206.5L1931 446.5L552.5 433L483.5 418L320 449.5Z" fill="#FFFF8E"/>
<path d="M552.5 531.5L468.5 466L266.5 516.5L0 296L236.5 553.5L462 496L552.5 531.5Z" fill="#FFFF8E"/>
<path d="M2134 282L2000 427L2203.5 431.5L2134 282Z" fill="#FFFF8E"/>
<path d="M167 16L80 149L69.5 145L25 218.5L258 449.5L403 425.5L520 491L657.5 434.5L1838 412.5L2059.5 206.5L1971 63.5L1988.5 35L1057 16.5L1014.5 77L942.5 16.5L167 16Z" fill="#F44407"/>
<path d="M0 243.5L47.5 136L80 130.5L147 0H120.5L69.5 126L8 136L0 243.5Z" fill="#F44407"/>
<path d="M2059.5 304L1938 427L2093 401.5L2059.5 304Z" fill="#F44407"/>
<path d="M1938 427L2146.5 434.5L2072 282L2112.5 412.5L1938 427Z" fill="#F44407"/>
</svg>
